<?xml version="1.0" encoding="UTF-8"?>
<!DOCTYPE svg PUBLIC "-//W3C//DTD SVG 1.1//EN" "http://www.w3.org/Graphics/SVG/1.1/DTD/svg11.dtd">
<svg xmlns="http://www.w3.org/2000/svg" version="1.1" width="500px" height="500px" style="shape-rendering:geometricPrecision; text-rendering:geometricPrecision; image-rendering:optimizeQuality; fill-rule:evenodd; clip-rule:evenodd" xmlns:xlink="http://www.w3.org/1999/xlink">
<g><path style="opacity:0.994" fill="#79fafd" d="M 330.5,65.5 C 306.831,65.3334 283.164,65.5 259.5,66C 254.606,67.686 251.106,70.8526 249,75.5C 248.333,98.5 248.333,121.5 249,144.5C 252.385,153.448 258.885,157.114 268.5,155.5C 268.5,164.167 268.5,172.833 268.5,181.5C 269.873,181.657 271.207,181.49 272.5,181C 281.536,172.296 290.869,163.962 300.5,156C 322.5,155.667 344.5,155.333 366.5,155C 372.333,153.167 376.167,149.333 378,143.5C 378.667,138.167 378.667,132.833 378,127.5C 377.292,126.619 376.458,125.953 375.5,125.5C 375.5,124.167 375.5,122.833 375.5,121.5C 376.458,121.047 377.292,120.381 378,119.5C 378.667,113.5 378.667,107.5 378,101.5C 377.292,100.619 376.458,99.9528 375.5,99.5C 375.5,98.1667 375.5,96.8333 375.5,95.5C 376.458,95.0472 377.292,94.3805 378,93.5C 378.499,88.8452 378.666,84.1785 378.5,79.5C 379.191,83.8993 379.858,88.3993 380.5,93C 404.833,106.5 429.167,120 453.5,133.5C 454.667,210.498 454.833,287.498 454,364.5C 386.581,402.46 319.081,440.293 251.5,478C 250.167,478.667 248.833,478.667 247.5,478C 180.328,440.246 112.995,402.746 45.5,365.5C 44.3334,288.502 44.1667,211.502 45,134.5C 112.962,96.1031 181.128,58.1031 249.5,20.5C 277.009,34.7503 304.009,49.7503 330.5,65.5 Z"/></g>
<g><path style="opacity:0.978" fill="#3d2f62" d="M 330.5,65.5 C 342.838,65.3335 355.171,65.5001 367.5,66C 374.13,68.0982 377.797,72.5982 378.5,79.5C 378.666,84.1785 378.499,88.8452 378,93.5C 377.292,94.3805 376.458,95.0472 375.5,95.5C 374.883,95.3893 374.383,95.056 374,94.5C 373.667,88.8333 373.333,83.1667 373,77.5C 371.413,74.2441 368.913,72.0774 365.5,71C 329.415,70.0134 293.415,70.3467 257.5,72C 255.622,73.5429 254.122,75.3762 253,77.5C 252.333,99.1667 252.333,120.833 253,142.5C 254.031,145.539 255.865,148.039 258.5,150C 262.833,150.333 267.167,150.667 271.5,151C 272.056,151.383 272.389,151.883 272.5,152.5C 272.17,159.532 272.503,166.532 273.5,173.5C 274.107,173.376 274.44,173.043 274.5,172.5C 282.629,165.541 290.629,158.374 298.5,151C 321.5,150.667 344.5,150.333 367.5,150C 370.381,148.749 372.214,146.583 373,143.5C 373.333,137.833 373.667,132.167 374,126.5C 374.383,125.944 374.883,125.611 375.5,125.5C 376.458,125.953 377.292,126.619 378,127.5C 378.667,132.833 378.667,138.167 378,143.5C 376.167,149.333 372.333,153.167 366.5,155C 344.5,155.333 322.5,155.667 300.5,156C 290.869,163.962 281.536,172.296 272.5,181C 271.207,181.49 269.873,181.657 268.5,181.5C 268.5,172.833 268.5,164.167 268.5,155.5C 258.885,157.114 252.385,153.448 249,144.5C 248.333,121.5 248.333,98.5 249,75.5C 251.106,70.8526 254.606,67.686 259.5,66C 283.164,65.5 306.831,65.3334 330.5,65.5 Z"/></g>
<g><path style="opacity:1" fill="#f8769e" d="M 375.5,95.5 C 375.5,96.8333 375.5,98.1667 375.5,99.5C 374.883,99.6107 374.383,99.944 374,100.5C 373.333,107.167 373.333,113.833 374,120.5C 374.383,121.056 374.883,121.389 375.5,121.5C 375.5,122.833 375.5,124.167 375.5,125.5C 374.883,125.611 374.383,125.944 374,126.5C 373.667,132.167 373.333,137.833 373,143.5C 372.214,146.583 370.381,148.749 367.5,150C 344.5,150.333 321.5,150.667 298.5,151C 290.629,158.374 282.629,165.541 274.5,172.5C 273.833,165.833 273.167,159.167 272.5,152.5C 272.389,151.883 272.056,151.383 271.5,151C 267.167,150.667 262.833,150.333 258.5,150C 255.865,148.039 254.031,145.539 253,142.5C 252.333,120.833 252.333,99.1667 253,77.5C 254.122,75.3762 255.622,73.5429 257.5,72C 293.415,70.3467 329.415,70.0134 365.5,71C 368.913,72.0774 371.413,74.2441 373,77.5C 373.333,83.1667 373.667,88.8333 374,94.5C 374.383,95.056 374.883,95.3893 375.5,95.5 Z"/></g>
<g><path style="opacity:1" fill="#fefbfc" d="M 261.5,77.5 C 265.5,77.5 269.5,77.5 273.5,77.5C 273.5,80.8333 273.5,84.1667 273.5,87.5C 269.5,87.5 265.5,87.5 261.5,87.5C 261.5,84.1667 261.5,80.8333 261.5,77.5 Z"/></g>
<g><path style="opacity:1" fill="#fffbfc" d="M 292.5,93.5 C 314.983,91.1494 324.817,101.149 322,123.5C 316.514,136.659 306.681,141.492 292.5,138C 279.92,131.643 275.42,121.476 279,107.5C 281.687,100.981 286.187,96.3143 292.5,93.5 Z"/></g>
<g><path style="opacity:1" fill="#fffbfc" d="M 339.5,93.5 C 347.206,92.6646 354.539,93.8312 361.5,97C 365.6,100.237 367.6,104.404 367.5,109.5C 363.833,109.5 360.167,109.5 356.5,109.5C 354.681,102.853 350.348,100.686 343.5,103C 336.489,110.439 335.656,118.606 341,127.5C 345.99,130.462 350.656,130.128 355,126.5C 356.009,124.975 356.509,123.308 356.5,121.5C 360.514,121.334 364.514,121.501 368.5,122C 364.135,136.359 354.469,141.692 339.5,138C 324.923,128.919 321.756,116.753 330,101.5C 332.772,98.2166 335.939,95.5499 339.5,93.5 Z"/></g>
<g><path style="opacity:1" fill="#fffdfd" d="M 261.5,94.5 C 265.5,94.5 269.5,94.5 273.5,94.5C 273.5,108.833 273.5,123.167 273.5,137.5C 269.5,137.5 265.5,137.5 261.5,137.5C 261.5,123.167 261.5,108.833 261.5,94.5 Z"/></g>
<g><path style="opacity:1" fill="#3e3567" d="M 375.5,99.5 C 376.458,99.9528 377.292,100.619 378,101.5C 378.667,107.5 378.667,113.5 378,119.5C 377.292,120.381 376.458,121.047 375.5,121.5C 374.883,121.389 374.383,121.056 374,120.5C 373.333,113.833 373.333,107.167 374,100.5C 374.383,99.944 374.883,99.6107 375.5,99.5 Z"/></g>
<g><path style="opacity:1" fill="#fa769f" d="M 295.5,102.5 C 301.898,101.053 306.731,103.053 310,108.5C 310.667,113.167 310.667,117.833 310,122.5C 307.419,129.187 302.586,131.354 295.5,129C 294.333,127.833 293.167,126.667 292,125.5C 290.483,119.92 290.149,114.253 291,108.5C 292.332,106.34 293.832,104.34 295.5,102.5 Z"/></g>
<g><path style="opacity:1" fill="#3d3062" d="M 196.5,128.5 C 203.939,128.379 208.606,131.879 210.5,139C 210.21,144.757 207.377,148.591 202,150.5C 201.501,156.491 201.334,162.491 201.5,168.5C 211.491,170.323 217.824,176.156 220.5,186C 234.213,186.093 247.88,186.76 261.5,188C 278.063,194.947 286.229,207.447 286,225.5C 300.414,229.571 306.08,238.904 303,253.5C 299.71,260.987 294.044,265.654 286,267.5C 286.342,290.032 275.508,303.198 253.5,307C 216.833,307.667 180.167,307.667 143.5,307C 129.07,304.57 119.57,296.403 115,282.5C 113.038,277.344 112.205,272.011 112.5,266.5C 101.328,264.379 95.3278,257.546 94.5,246C 95.7797,234.722 101.946,227.888 113,225.5C 112.761,207.471 120.928,194.971 137.5,188C 151.12,186.76 164.787,186.093 178.5,186C 180.688,175.586 187.021,169.753 197.5,168.5C 197.666,162.491 197.499,156.491 197,150.5C 185.997,143.347 185.831,136.014 196.5,128.5 Z"/></g>
<g><path style="opacity:1" fill="#f7759e" d="M 196.5,133.5 C 205.823,133.741 207.823,137.574 202.5,145C 193.096,145.141 191.096,141.308 196.5,133.5 Z"/></g>
<g><path style="opacity:1" fill="#b65b88" d="M 272.5,152.5 C 273.167,159.167 273.833,165.833 274.5,172.5C 274.44,173.043 274.107,173.376 273.5,173.5C 272.503,166.532 272.17,159.532 272.5,152.5 Z"/></g>
<g><path style="opacity:1" fill="#0486eb" d="M 194.5,172.5 C 205.504,171.483 212.504,176.15 215.5,186.5C 204.833,186.5 194.167,186.5 183.5,186.5C 184.94,180.062 188.607,175.396 194.5,172.5 Z"/></g>
<g><path style="opacity:1" fill="#fbfbfc" d="M 278.5,209.5 C 278.631,210.239 278.464,210.906 278,211.5C 272.486,202.982 264.653,197.815 254.5,196C 217.5,195.333 180.5,195.333 143.5,196C 133.787,198.095 126.287,203.262 121,211.5C 120.536,210.906 120.369,210.239 120.5,209.5C 124.795,201.043 131.462,195.21 140.5,192C 179.167,191.333 217.833,191.333 256.5,192C 266.663,194.335 273.996,200.168 278.5,209.5 Z"/></g>
<g><path style="opacity:1" fill="#70c8f6" d="M 278.5,209.5 C 279.6,211.277 280.434,213.277 281,215.5C 281.667,235.833 281.667,256.167 281,276.5C 278.005,289.493 270.172,297.993 257.5,302C 218.833,302.667 180.167,302.667 141.5,302C 129.701,298.201 121.868,290.368 118,278.5C 117.333,257.833 117.333,237.167 118,216.5C 118.156,213.809 118.989,211.476 120.5,209.5C 120.369,210.239 120.536,210.906 121,211.5C 126.287,203.262 133.787,198.095 143.5,196C 180.5,195.333 217.5,195.333 254.5,196C 264.653,197.815 272.486,202.982 278,211.5C 278.464,210.906 278.631,210.239 278.5,209.5 Z"/></g>
<g><path style="opacity:1" fill="#fed6e4" d="M 143.5,205.5 C 180.168,205.333 216.835,205.5 253.5,206C 259.469,207.298 263.635,210.798 266,216.5C 266.667,236.5 266.667,256.5 266,276.5C 264.058,282.776 259.891,286.61 253.5,288C 216.833,288.667 180.167,288.667 143.5,288C 138.667,285.833 135.167,282.333 133,277.5C 132.333,257.167 132.333,236.833 133,216.5C 135.357,211.645 138.857,207.979 143.5,205.5 Z"/></g>
<g><path style="opacity:1" fill="#3a2c60" d="M 161.5,227.5 C 172.486,226.653 176.986,231.653 175,242.5C 168.256,250.767 161.922,250.434 156,241.5C 155.333,238.833 155.333,236.167 156,233.5C 158.04,231.63 159.873,229.63 161.5,227.5 Z"/></g>
<g><path style="opacity:1" fill="#3c2d61" d="M 229.5,227.5 C 240.749,227.562 244.916,232.896 242,243.5C 234.244,250.929 227.91,249.929 223,240.5C 221.973,234.554 224.14,230.221 229.5,227.5 Z"/></g>
<g><path style="opacity:1" fill="#244f96" d="M 112.5,230.5 C 113.494,240.987 113.828,251.654 113.5,262.5C 112.209,262.737 111.209,262.404 110.5,261.5C 112.475,251.554 113.142,241.221 112.5,230.5 Z"/></g>
<g><path style="opacity:1" fill="#0189ef" d="M 112.5,230.5 C 113.142,241.221 112.475,251.554 110.5,261.5C 101.226,257.565 97.7259,250.565 100,240.5C 102.386,234.896 106.553,231.563 112.5,230.5 Z"/></g>
<g><path style="opacity:1" fill="#1f58a4" d="M 286.5,230.5 C 285.858,241.221 286.525,251.554 288.5,261.5C 287.791,262.404 286.791,262.737 285.5,262.5C 285.172,251.654 285.506,240.987 286.5,230.5 Z"/></g>
<g><path style="opacity:1" fill="#0189ef" d="M 286.5,230.5 C 299.311,234.798 302.811,243.131 297,255.5C 294.721,258.381 291.888,260.381 288.5,261.5C 286.525,251.554 285.858,241.221 286.5,230.5 Z"/></g>
<g><path style="opacity:1" fill="#392a5f" d="M 187.5,259.5 C 191.077,261.533 194.911,263.2 199,264.5C 203.192,263.903 206.859,262.236 210,259.5C 213.137,260.945 213.303,262.778 210.5,265C 202.214,270.093 194.38,269.593 187,263.5C 186.421,262.072 186.588,260.738 187.5,259.5 Z"/></g>
<g><path style="opacity:1" fill="#fefeff" d="M 89.5,332.5 C 99.8333,332.5 110.167,332.5 120.5,332.5C 120.5,335.5 120.5,338.5 120.5,341.5C 113.833,341.5 107.167,341.5 100.5,341.5C 100.5,342.5 100.5,343.5 100.5,344.5C 106.5,344.5 112.5,344.5 118.5,344.5C 118.5,347.5 118.5,350.5 118.5,353.5C 112.5,353.5 106.5,353.5 100.5,353.5C 100.5,355.833 100.5,358.167 100.5,360.5C 107.167,360.5 113.833,360.5 120.5,360.5C 120.5,363.5 120.5,366.5 120.5,369.5C 110.167,369.5 99.8333,369.5 89.5,369.5C 89.5,357.167 89.5,344.833 89.5,332.5 Z"/></g>
<g><path style="opacity:1" fill="#fdfefe" d="M 155.5,332.5 C 160.099,332.2 164.599,332.533 169,333.5C 173.467,345.425 177.633,357.425 181.5,369.5C 177.5,369.5 173.5,369.5 169.5,369.5C 169.643,367.738 169.309,366.071 168.5,364.5C 163.88,363.507 159.214,363.173 154.5,363.5C 154.167,365.5 153.833,367.5 153.5,369.5C 149.445,369.824 145.445,369.491 141.5,368.5C 146.183,356.474 150.849,344.474 155.5,332.5 Z"/></g>
<g><path style="opacity:1" fill="#fdfeff" d="M 250.5,332.5 C 253.833,332.5 257.167,332.5 260.5,332.5C 260.5,334.833 260.5,337.167 260.5,339.5C 257.167,339.5 253.833,339.5 250.5,339.5C 250.5,337.167 250.5,334.833 250.5,332.5 Z"/></g>
<g><path style="opacity:1" fill="#fafefe" d="M 309.5,332.5 C 311.402,335.337 312.069,338.671 311.5,342.5C 313.167,342.5 314.833,342.5 316.5,342.5C 316.5,345.167 316.5,347.833 316.5,350.5C 314.833,350.5 313.167,350.5 311.5,350.5C 311.5,354.833 311.5,359.167 311.5,363.5C 313.167,363.5 314.833,363.5 316.5,363.5C 316.5,365.833 316.5,368.167 316.5,370.5C 313.15,370.665 309.817,370.498 306.5,370C 304.671,369.727 303.171,368.893 302,367.5C 300.596,361.956 300.096,356.29 300.5,350.5C 299.167,350.5 297.833,350.5 296.5,350.5C 296.5,347.833 296.5,345.167 296.5,342.5C 297.833,342.5 299.167,342.5 300.5,342.5C 300.215,340.712 300.548,339.045 301.5,337.5C 304.568,336.309 307.235,334.642 309.5,332.5 Z"/></g>
<g><path style="opacity:1" fill="#fafefe" d="M 403.5,332.5 C 405.402,335.337 406.069,338.671 405.5,342.5C 407.167,342.5 408.833,342.5 410.5,342.5C 410.5,345.167 410.5,347.833 410.5,350.5C 408.833,350.5 407.167,350.5 405.5,350.5C 405.5,354.833 405.5,359.167 405.5,363.5C 407.167,363.5 408.833,363.5 410.5,363.5C 410.5,365.833 410.5,368.167 410.5,370.5C 407.15,370.665 403.817,370.498 400.5,370C 398.671,369.727 397.171,368.893 396,367.5C 394.596,361.956 394.096,356.29 394.5,350.5C 393.167,350.5 391.833,350.5 390.5,350.5C 390.5,347.833 390.5,345.167 390.5,342.5C 391.833,342.5 393.167,342.5 394.5,342.5C 394.215,340.712 394.548,339.045 395.5,337.5C 398.568,336.309 401.235,334.642 403.5,332.5 Z"/></g>
<g><path style="opacity:1" fill="#fcfefe" d="M 193.5,341.5 C 199.572,340.777 205.072,342.111 210,345.5C 210.374,346.416 210.874,347.25 211.5,348C 206.676,349.585 202.009,349.419 197.5,347.5C 193.551,348.813 193.551,350.313 197.5,352C 201.719,352.173 205.719,353.173 209.5,355C 213.749,360.622 212.749,365.289 206.5,369C 200.026,371.169 193.693,370.836 187.5,368C 185.393,366.736 184.393,364.903 184.5,362.5C 187.397,362.681 190.23,362.348 193,361.5C 194.434,361.93 195.601,362.764 196.5,364C 198.441,364.743 200.274,364.576 202,363.5C 202.749,362.365 202.583,361.365 201.5,360.5C 197.261,359.018 192.927,357.852 188.5,357C 182.333,349.328 183.999,344.161 193.5,341.5 Z"/></g>
<g><path style="opacity:1" fill="#fcfefe" d="M 225.5,341.5 C 231.572,340.777 237.072,342.111 242,345.5C 242.374,346.416 242.874,347.25 243.5,348C 238.676,349.585 234.009,349.419 229.5,347.5C 225.551,348.813 225.551,350.313 229.5,352C 233.719,352.173 237.719,353.173 241.5,355C 245.749,360.622 244.749,365.289 238.5,369C 232.026,371.169 225.693,370.836 219.5,368C 217.393,366.736 216.393,364.903 216.5,362.5C 219.397,362.681 222.23,362.348 225,361.5C 226.434,361.93 227.601,362.764 228.5,364C 230.441,364.743 232.274,364.576 234,363.5C 234.749,362.365 234.583,361.365 233.5,360.5C 229.261,359.018 224.927,357.852 220.5,357C 214.333,349.328 215.999,344.161 225.5,341.5 Z"/></g>
<g><path style="opacity:1" fill="#fcfefe" d="M 274.5,341.5 C 280.572,340.777 286.072,342.111 291,345.5C 291.374,346.416 291.874,347.25 292.5,348C 287.676,349.585 283.009,349.419 278.5,347.5C 274.551,348.813 274.551,350.313 278.5,352C 282.719,352.173 286.719,353.173 290.5,355C 294.749,360.622 293.749,365.289 287.5,369C 281.026,371.169 274.693,370.836 268.5,368C 266.393,366.736 265.393,364.903 265.5,362.5C 268.397,362.681 271.23,362.348 274,361.5C 275.434,361.93 276.601,362.764 277.5,364C 279.441,364.743 281.274,364.576 283,363.5C 283.749,362.365 283.583,361.365 282.5,360.5C 278.261,359.018 273.927,357.852 269.5,357C 263.333,349.328 264.999,344.161 274.5,341.5 Z"/></g>
<g><path style="opacity:1" fill="#fbfefe" d="M 329.5,341.5 C 335.232,341.283 340.899,341.783 346.5,343C 347.667,344.167 348.833,345.333 350,346.5C 351.115,353.975 351.948,361.475 352.5,369C 349.167,369.667 345.833,369.667 342.5,369C 341.874,368.25 341.374,367.416 341,366.5C 335.993,370.563 330.493,371.397 324.5,369C 321.231,365.547 320.731,361.714 323,357.5C 328.291,355.133 333.791,353.3 339.5,352C 340.708,349.355 339.708,348.188 336.5,348.5C 334.069,348.437 332.235,349.437 331,351.5C 328.23,350.652 325.397,350.319 322.5,350.5C 322.986,346.019 325.319,343.019 329.5,341.5 Z"/></g>
<g><path style="opacity:1" fill="#fafefe" d="M 372.5,341.5 C 377.39,340.784 381.556,342.117 385,345.5C 386.401,353.415 386.901,361.415 386.5,369.5C 382.833,369.5 379.167,369.5 375.5,369.5C 375.666,363.158 375.5,356.825 375,350.5C 372.119,348.972 369.786,349.638 368,352.5C 367.501,358.157 367.334,363.824 367.5,369.5C 364.167,369.5 360.833,369.5 357.5,369.5C 357.5,360.5 357.5,351.5 357.5,342.5C 360.833,342.5 364.167,342.5 367.5,342.5C 367.351,343.552 367.517,344.552 368,345.5C 369.667,344.267 371.167,342.933 372.5,341.5 Z"/></g>
<g><path style="opacity:1" fill="#fdfeff" d="M 250.5,342.5 C 253.833,342.5 257.167,342.5 260.5,342.5C 260.5,351.5 260.5,360.5 260.5,369.5C 257.167,369.5 253.833,369.5 250.5,369.5C 250.5,360.5 250.5,351.5 250.5,342.5 Z"/></g>
<g><path style="opacity:1" fill="#89fbfe" d="M 161.5,342.5 C 163.405,346.216 164.739,350.216 165.5,354.5C 162.813,354.664 160.146,354.497 157.5,354C 158.735,350.128 160.068,346.295 161.5,342.5 Z"/></g>
<g><path style="opacity:1" fill="#fefeff" d="M 124.5,351.5 C 129.5,351.5 134.5,351.5 139.5,351.5C 139.5,354.167 139.5,356.833 139.5,359.5C 134.5,359.5 129.5,359.5 124.5,359.5C 124.5,356.833 124.5,354.167 124.5,351.5 Z"/></g>
<g><path style="opacity:1" fill="#8dfbfe" d="M 338.5,356.5 C 339.5,356.5 340.5,356.5 341.5,356.5C 340.802,362.431 337.636,364.431 332,362.5C 331.333,361.5 331.333,360.5 332,359.5C 334.166,358.269 336.333,357.269 338.5,356.5 Z"/></g>
</svg>
