<?xml version="1.0" encoding="UTF-8"?>
<!DOCTYPE svg PUBLIC "-//W3C//DTD SVG 1.1//EN" "http://www.w3.org/Graphics/SVG/1.1/DTD/svg11.dtd">
<svg xmlns="http://www.w3.org/2000/svg" version="1.1" width="851px" height="351px" style="shape-rendering:geometricPrecision; text-rendering:geometricPrecision; image-rendering:optimizeQuality; fill-rule:evenodd; clip-rule:evenodd" xmlns:xlink="http://www.w3.org/1999/xlink">
<g><path style="opacity:0.956" fill="#3a2c60" d="M 329.5,44.5 C 330.626,51.0859 330.792,57.7526 330,64.5C 329.292,65.3805 328.458,66.0472 327.5,66.5C 326.542,66.0472 325.708,65.3805 325,64.5C 324.667,58.1667 324.333,51.8333 324,45.5C 322.108,41.9421 319.275,39.4421 315.5,38C 275.107,37.0175 234.774,37.3508 194.5,39C 192.291,40.8734 190.458,43.04 189,45.5C 188.333,70.8333 188.333,96.1667 189,121.5C 190.833,124.667 193.333,127.167 196.5,129C 201.351,129.174 206.018,129.674 210.5,130.5C 210.169,138.528 210.502,146.528 211.5,154.5C 212.107,154.376 212.44,154.043 212.5,153.5C 221.469,145.674 230.469,137.841 239.5,130C 264.833,129.667 290.167,129.333 315.5,129C 318.562,127.939 321.062,126.106 323,123.5C 324.225,116.245 324.892,108.911 325,101.5C 325.671,100.748 326.504,100.414 327.5,100.5C 328.458,100.953 329.292,101.619 330,102.5C 330.667,108.833 330.667,115.167 330,121.5C 327.833,127.667 323.667,131.833 317.5,134C 292.167,134.333 266.833,134.667 241.5,135C 232.636,143.033 223.969,151.2 215.5,159.5C 213.704,160.793 212.037,162.293 210.5,164C 208.299,164.825 206.466,164.325 205,162.5C 204.501,156.843 204.334,151.176 204.5,145.5C 205.482,142.038 205.815,138.371 205.5,134.5C 201.523,134.371 197.857,134.371 194.5,134.5C 189.218,132.386 185.385,128.719 183,123.5C 182.333,97.1667 182.333,70.8333 183,44.5C 184.833,38.6667 188.667,34.8333 194.5,33C 235.833,32.3333 277.167,32.3333 318.5,33C 324.389,34.722 328.056,38.5554 329.5,44.5 Z"/></g>
<g><path style="opacity:1" fill="#f8749d" d="M 327.5,66.5 C 327.5,67.8333 327.5,69.1667 327.5,70.5C 326.542,70.9528 325.708,71.6195 325,72.5C 324.333,79.8333 324.333,87.1667 325,94.5C 325.671,95.2524 326.504,95.5858 327.5,95.5C 327.5,97.1667 327.5,98.8333 327.5,100.5C 326.504,100.414 325.671,100.748 325,101.5C 324.892,108.911 324.225,116.245 323,123.5C 321.062,126.106 318.562,127.939 315.5,129C 290.167,129.333 264.833,129.667 239.5,130C 230.469,137.841 221.469,145.674 212.5,153.5C 211.833,145.833 211.167,138.167 210.5,130.5C 206.018,129.674 201.351,129.174 196.5,129C 193.333,127.167 190.833,124.667 189,121.5C 188.333,96.1667 188.333,70.8333 189,45.5C 190.458,43.04 192.291,40.8734 194.5,39C 234.774,37.3508 275.107,37.0175 315.5,38C 319.275,39.4421 322.108,41.9421 324,45.5C 324.333,51.8333 324.667,58.1667 325,64.5C 325.708,65.3805 326.542,66.0472 327.5,66.5 Z"/></g>
<g><path style="opacity:0.935" fill="#fefffe" d="M 413.5,43.5 C 422.167,43.5 430.833,43.5 439.5,43.5C 439.5,50.8333 439.5,58.1667 439.5,65.5C 430.833,65.5 422.167,65.5 413.5,65.5C 413.5,58.1667 413.5,50.8333 413.5,43.5 Z"/></g>
<g><path style="opacity:0.98" fill="#e5e6e7" d="M 329.5,44.5 C 335.384,45.8806 339.217,49.5473 341,55.5C 341.667,81.5 341.667,107.5 341,133.5C 338.623,140.545 333.79,144.712 326.5,146C 301.833,146.333 277.167,146.667 252.5,147C 241.621,156.718 230.621,166.218 219.5,175.5C 217.971,175.471 216.804,174.804 216,173.5C 215.501,168.845 215.334,164.179 215.5,159.5C 223.969,151.2 232.636,143.033 241.5,135C 266.833,134.667 292.167,134.333 317.5,134C 323.667,131.833 327.833,127.667 330,121.5C 330.667,115.167 330.667,108.833 330,102.5C 329.292,101.619 328.458,100.953 327.5,100.5C 327.5,98.8333 327.5,97.1667 327.5,95.5C 328.458,95.0472 329.292,94.3805 330,93.5C 330.667,86.5 330.667,79.5 330,72.5C 329.292,71.6195 328.458,70.9528 327.5,70.5C 327.5,69.1667 327.5,67.8333 327.5,66.5C 328.458,66.0472 329.292,65.3805 330,64.5C 330.792,57.7526 330.626,51.0859 329.5,44.5 Z"/></g>
<g><path style="opacity:0.52" fill="#07f8fc" d="M 676.5,63.5 C 686.678,68.1736 696.512,73.507 706,79.5C 706.667,90.5 706.667,101.5 706,112.5C 696.628,118.034 687.128,123.367 677.5,128.5C 668.251,123.293 659.085,117.96 650,112.5C 649.333,101.5 649.333,90.5 650,79.5C 658.98,74.2666 667.813,68.9333 676.5,63.5 Z"/></g>
<g><path style="opacity:1" fill="#453366" d="M 327.5,70.5 C 328.458,70.9528 329.292,71.6195 330,72.5C 330.667,79.5 330.667,86.5 330,93.5C 329.292,94.3805 328.458,95.0472 327.5,95.5C 326.504,95.5858 325.671,95.2524 325,94.5C 324.333,87.1667 324.333,79.8333 325,72.5C 325.708,71.6195 326.542,70.9528 327.5,70.5 Z"/></g>
<g><path style="opacity:1" fill="#fffcfd" d="M 215.5,76.5 C 224.544,75.7128 228.71,79.7128 228,88.5C 225.367,93.7315 221.201,95.5649 215.5,94C 208.875,88.1683 208.875,82.3349 215.5,76.5 Z"/></g>
<g><path style="opacity:1" fill="#fffcfd" d="M 252.5,76.5 C 261.544,75.7128 265.71,79.7128 265,88.5C 262.549,94.0891 258.383,95.9224 252.5,94C 245.865,88.2155 245.865,82.3822 252.5,76.5 Z"/></g>
<g><path style="opacity:1" fill="#fffcfc" d="M 289.5,76.5 C 298.878,75.38 303.044,79.38 302,88.5C 299.598,94.092 295.431,95.9253 289.5,94C 282.874,88.1386 282.874,82.3052 289.5,76.5 Z"/></g>
<g><path style="opacity:0.95" fill="#fefffe" d="M 488.5,76.5 C 510.23,73.8913 527.063,81.558 539,99.5C 546.628,118.005 546.295,136.338 538,154.5C 530.315,166.16 519.482,172.993 505.5,175C 470.045,178.038 451.045,161.871 448.5,126.5C 449.069,99.2585 462.403,82.5918 488.5,76.5 Z M 493.5,96.5 C 505.698,96.1784 513.531,101.845 517,113.5C 519.899,125.403 518.565,136.736 513,147.5C 502.619,157.716 491.952,158.049 481,148.5C 475.758,138.466 474.091,127.799 476,116.5C 477.84,106.169 483.674,99.5027 493.5,96.5 Z"/></g>
<g><path style="opacity:0.947" fill="#fefffe" d="M 589.5,76.5 C 606.856,74.4515 621.69,79.4515 634,91.5C 638.583,97.7487 641.083,104.749 641.5,112.5C 632.833,112.5 624.167,112.5 615.5,112.5C 612.317,99.0329 603.984,94.1996 590.5,98C 580.432,104.631 575.766,114.131 576.5,126.5C 575.893,138.114 580.226,147.281 589.5,154C 604.693,157.736 613.693,151.903 616.5,136.5C 624.833,136.5 633.167,136.5 641.5,136.5C 638.171,162.157 623.505,175.157 597.5,175.5C 577.172,175.636 562.672,166.636 554,148.5C 547.757,129.2 549.757,110.867 560,93.5C 567.824,84.1408 577.657,78.4741 589.5,76.5 Z"/></g>
<g><path style="opacity:0.965" fill="#fefffe" d="M 413.5,79.5 C 422.167,79.5 430.833,79.5 439.5,79.5C 439.5,110.833 439.5,142.167 439.5,173.5C 430.833,173.5 422.167,173.5 413.5,173.5C 413.5,142.167 413.5,110.833 413.5,79.5 Z"/></g>
<g><path style="opacity:0.972" fill="#3a2b5f" d="M 140.5,114.5 C 140.571,121.356 137.404,126.023 131,128.5C 130.502,131.482 130.335,134.482 130.5,137.5C 130.5,138.167 130.833,138.5 131.5,138.5C 131.335,141.518 131.502,144.518 132,147.5C 133.011,148.337 134.178,148.67 135.5,148.5C 137.336,150.588 139.669,151.921 142.5,152.5C 145.535,154.879 147.869,157.879 149.5,161.5C 149.979,164.064 150.645,166.564 151.5,169C 153.712,169.789 155.712,169.622 157.5,168.5C 170.561,168.078 183.561,168.578 196.5,170C 206.435,172.955 214.102,178.789 219.5,187.5C 224.422,195.44 226.588,204.107 226,213.5C 229.975,214.403 233.808,215.736 237.5,217.5C 240.973,219.637 243.306,222.637 244.5,226.5C 248.84,237.898 246.506,247.731 237.5,256C 233.781,258.364 229.781,259.864 225.5,260.5C 226.731,282.558 217.065,297.392 196.5,305C 151.532,306.635 106.532,306.969 61.5,306C 56.7003,304.431 52.0336,302.597 47.5,300.5C 36.3572,292.345 30.3572,281.345 29.5,267.5C 29.5,265.167 29.5,262.833 29.5,260.5C 26.6726,260.416 24.006,259.75 21.5,258.5C 7.55775,249.225 4.72441,237.225 13,222.5C 17.2218,217.389 22.5552,214.056 29,212.5C 29.6655,189.308 41.1655,174.808 63.5,169C 76.8458,168.833 90.1791,168.333 103.5,167.5C 106.571,156.928 113.405,150.261 124,147.5C 124.831,141.141 124.664,134.807 123.5,128.5C 113.995,123.454 112.162,116.454 118,107.5C 125.646,101.646 132.646,102.313 139,109.5C 140.009,111.025 140.509,112.692 140.5,114.5 Z"/></g>
<g><path style="opacity:1" fill="#f2739c" d="M 124.5,109.5 C 132.33,108.495 135.496,111.828 134,119.5C 129.246,124.951 124.913,124.617 121,118.5C 120.333,116.833 120.333,115.167 121,113.5C 122.376,112.295 123.542,110.962 124.5,109.5 Z"/></g>
<g><path style="opacity:0.973" fill="#e5e6e7" d="M 140.5,114.5 C 151.582,118.01 154.415,125.01 149,135.5C 147.587,137.414 145.753,138.747 143.5,139.5C 142.508,143.783 142.174,148.116 142.5,152.5C 139.669,151.921 137.336,150.588 135.5,148.5C 135.817,145.428 135.484,142.428 134.5,139.5C 133.583,138.873 132.583,138.539 131.5,138.5C 130.833,138.5 130.5,138.167 130.5,137.5C 130.335,134.482 130.502,131.482 131,128.5C 137.404,126.023 140.571,121.356 140.5,114.5 Z"/></g>
<g><path style="opacity:1" fill="#b25a87" d="M 210.5,130.5 C 211.167,138.167 211.833,145.833 212.5,153.5C 212.44,154.043 212.107,154.376 211.5,154.5C 210.502,146.528 210.169,138.528 210.5,130.5 Z"/></g>
<g><path style="opacity:0.968" fill="#e3e4e6" d="M 204.5,145.5 C 199.781,143.114 196.448,139.447 194.5,134.5C 197.857,134.371 201.523,134.371 205.5,134.5C 205.815,138.371 205.482,142.038 204.5,145.5 Z"/></g>
<g><path style="opacity:1" fill="#0189ef" d="M 145.5,168.5 C 133.452,169.145 121.785,168.478 110.5,166.5C 116.324,153.435 125.657,150.268 138.5,157C 142.502,159.839 144.835,163.673 145.5,168.5 Z"/></g>
<g><path style="opacity:1" fill="#dedee2" d="M 149.5,161.5 C 151.595,162.412 153.595,163.579 155.5,165C 156.823,165.816 157.489,166.983 157.5,168.5C 155.712,169.622 153.712,169.789 151.5,169C 150.645,166.564 149.979,164.064 149.5,161.5 Z"/></g>
<g><path style="opacity:1" fill="#1960b1" d="M 110.5,166.5 C 121.785,168.478 133.452,169.145 145.5,168.5C 133.678,169.495 121.678,169.828 109.5,169.5C 109.263,168.209 109.596,167.209 110.5,166.5 Z"/></g>
<g><path style="opacity:1" fill="#dad8e1" d="M 192.5,175.5 C 148.143,175.188 103.81,175.521 59.5,176.5C 60.2625,175.732 61.2625,175.232 62.5,175C 106.002,174.169 149.335,174.335 192.5,175.5 Z"/></g>
<g><path style="opacity:1" fill="#f3f8fc" d="M 192.5,175.5 C 205.56,178.229 214.227,185.895 218.5,198.5C 215.065,194.562 211.398,190.729 207.5,187C 203.065,184.449 198.399,182.449 193.5,181C 149.167,180.333 104.833,180.333 60.5,181C 50.9212,184.255 43.4212,190.088 38,198.5C 37.6012,198.272 37.4346,197.938 37.5,197.5C 41.5997,187.066 48.9331,180.066 59.5,176.5C 103.81,175.521 148.143,175.188 192.5,175.5 Z"/></g>
<g><path style="opacity:1" fill="#6dc7f5" d="M 218.5,198.5 C 219.29,199.609 219.79,200.942 220,202.5C 220.667,225.167 220.667,247.833 220,270.5C 216.509,287.324 206.342,297.491 189.5,301C 147.833,301.667 106.167,301.667 64.5,301C 49.4444,297.611 39.9444,288.445 36,273.5C 35.3333,249.167 35.3333,224.833 36,200.5C 36.2321,199.263 36.7321,198.263 37.5,197.5C 37.4346,197.938 37.6012,198.272 38,198.5C 43.4212,190.088 50.9212,184.255 60.5,181C 104.833,180.333 149.167,180.333 193.5,181C 198.399,182.449 203.065,184.449 207.5,187C 211.398,190.729 215.065,194.562 218.5,198.5 Z"/></g>
<g><path style="opacity:1" fill="#fed6e4" d="M 65.5,190.5 C 106.835,190.333 148.168,190.5 189.5,191C 197,193.167 201.833,198 204,205.5C 204.667,226.5 204.667,247.5 204,268.5C 202.432,275.737 198.266,280.904 191.5,284C 148.121,284.978 104.787,284.645 61.5,283C 56.4488,280.28 53.2822,276.113 52,270.5C 51.3333,248.833 51.3333,227.167 52,205.5C 54.2272,198.44 58.7272,193.44 65.5,190.5 Z"/></g>
<g><path style="opacity:0.984" fill="#e4e5e6" d="M 219.5,187.5 C 230.061,194.599 236.061,204.599 237.5,217.5C 233.808,215.736 229.975,214.403 226,213.5C 226.588,204.107 224.422,195.44 219.5,187.5 Z"/></g>
<g><path style="opacity:1" fill="#3c2d61" d="M 85.5,215.5 C 98.9896,215.788 103.49,222.122 99,234.5C 89.6706,242.408 82.6706,240.741 78,229.5C 77.6062,223.288 80.1062,218.621 85.5,215.5 Z"/></g>
<g><path style="opacity:1" fill="#3a2c60" d="M 162.5,215.5 C 168.807,214.875 173.64,217.209 177,222.5C 178.458,235.381 172.958,240.547 160.5,238C 151.982,229.511 152.649,222.011 162.5,215.5 Z"/></g>
<g><path style="opacity:0.979" fill="#fefffe" d="M 281.5,218.5 C 298.833,218.5 316.167,218.5 333.5,218.5C 333.5,223.167 333.5,227.833 333.5,232.5C 322.833,232.5 312.167,232.5 301.5,232.5C 301.5,235.167 301.5,237.833 301.5,240.5C 311.167,240.5 320.833,240.5 330.5,240.5C 330.5,245.167 330.5,249.833 330.5,254.5C 320.833,254.5 311.167,254.5 301.5,254.5C 301.5,258.5 301.5,262.5 301.5,266.5C 312.5,266.5 323.5,266.5 334.5,266.5C 334.5,271.167 334.5,275.833 334.5,280.5C 316.833,280.5 299.167,280.5 281.5,280.5C 281.5,259.833 281.5,239.167 281.5,218.5 Z"/></g>
<g><path style="opacity:0.959" fill="#fefffe" d="M 388.5,218.5 C 395.833,218.5 403.167,218.5 410.5,218.5C 417.67,239.175 425.336,259.675 433.5,280C 426.174,280.5 418.841,280.666 411.5,280.5C 411.041,277.123 410.374,273.789 409.5,270.5C 402.468,270.17 395.468,270.503 388.5,271.5C 387.5,274.167 386.5,276.833 385.5,279.5C 378.866,280.497 372.2,280.83 365.5,280.5C 372.771,259.686 380.438,239.019 388.5,218.5 Z M 398.5,236.5 C 401.258,243.183 403.258,250.183 404.5,257.5C 400.445,257.824 396.445,257.491 392.5,256.5C 395.112,250 397.112,243.333 398.5,236.5 Z"/></g>
<g><path style="opacity:0.952" fill="#fefffe" d="M 543.5,218.5 C 549.5,218.5 555.5,218.5 561.5,218.5C 561.5,222.5 561.5,226.5 561.5,230.5C 555.5,230.5 549.5,230.5 543.5,230.5C 543.5,226.5 543.5,222.5 543.5,218.5 Z"/></g>
<g><path style="opacity:0.947" fill="#fefffe" d="M 643.5,218.5 C 645.45,223.735 646.117,229.402 645.5,235.5C 648.833,235.5 652.167,235.5 655.5,235.5C 655.5,239.833 655.5,244.167 655.5,248.5C 652.167,248.5 648.833,248.5 645.5,248.5C 645.334,254.842 645.5,261.175 646,267.5C 646.739,268.574 647.739,269.241 649,269.5C 650.766,268.767 652.599,268.433 654.5,268.5C 655.162,272.466 655.495,276.466 655.5,280.5C 648.87,281.546 642.203,281.713 635.5,281C 630.941,279.073 628.441,275.573 628,270.5C 627.5,263.174 627.334,255.841 627.5,248.5C 625.5,248.5 623.5,248.5 621.5,248.5C 621.5,244.167 621.5,239.833 621.5,235.5C 623.5,235.5 625.5,235.5 627.5,235.5C 627.183,232.428 627.516,229.428 628.5,226.5C 633.72,224.059 638.72,221.392 643.5,218.5 Z"/></g>
<g><path style="opacity:0.947" fill="#fefffe" d="M 796.5,218.5 C 798.45,223.735 799.117,229.402 798.5,235.5C 801.833,235.5 805.167,235.5 808.5,235.5C 808.5,239.833 808.5,244.167 808.5,248.5C 805.167,248.5 801.833,248.5 798.5,248.5C 798.334,254.842 798.5,261.175 799,267.5C 799.739,268.574 800.739,269.241 802,269.5C 803.766,268.767 805.599,268.433 807.5,268.5C 808.162,272.466 808.495,276.466 808.5,280.5C 801.87,281.546 795.203,281.713 788.5,281C 783.941,279.073 781.441,275.573 781,270.5C 780.5,263.174 780.334,255.841 780.5,248.5C 778.5,248.5 776.5,248.5 774.5,248.5C 774.5,244.167 774.5,239.833 774.5,235.5C 776.5,235.5 778.5,235.5 780.5,235.5C 780.183,232.428 780.516,229.428 781.5,226.5C 786.72,224.059 791.72,221.392 796.5,218.5 Z"/></g>
<g><path style="opacity:1" fill="#2a4587" d="M 28.5,219.5 C 28.56,218.957 28.8933,218.624 29.5,218.5C 30.8333,230.833 30.8333,243.167 29.5,255.5C 28.8933,255.376 28.56,255.043 28.5,254.5C 29.8333,242.833 29.8333,231.167 28.5,219.5 Z"/></g>
<g><path style="opacity:1" fill="#146bc1" d="M 226.5,219.5 C 226.172,231.345 226.505,243.012 227.5,254.5C 227.44,255.043 227.107,255.376 226.5,255.5C 225.175,243.34 225.175,231.34 226.5,219.5 Z"/></g>
<g><path style="opacity:1" fill="#0188ee" d="M 28.5,219.5 C 29.8333,231.167 29.8333,242.833 28.5,254.5C 18.9169,252.205 14.2502,246.038 14.5,236C 15.3092,227.209 19.9758,221.709 28.5,219.5 Z"/></g>
<g><path style="opacity:1" fill="#0388ee" d="M 226.5,219.5 C 238.393,222.605 243.227,230.272 241,242.5C 238.197,248.473 233.697,252.473 227.5,254.5C 226.505,243.012 226.172,231.345 226.5,219.5 Z"/></g>
<g><path style="opacity:0.987" fill="#e5e6e7" d="M 244.5,226.5 C 254.716,231.59 259.216,239.924 258,251.5C 255.897,263.104 249.064,269.77 237.5,271.5C 238.255,294.856 227.588,310.023 205.5,317C 161.167,317.667 116.833,317.667 72.5,317C 62.1549,314.498 53.8216,308.998 47.5,300.5C 52.0336,302.597 56.7003,304.431 61.5,306C 106.532,306.969 151.532,306.635 196.5,305C 217.065,297.392 226.731,282.558 225.5,260.5C 229.781,259.864 233.781,258.364 237.5,256C 246.506,247.731 248.84,237.898 244.5,226.5 Z"/></g>
<g><path style="opacity:0.938" fill="#fefffe" d="M 448.5,234.5 C 455.175,234.334 461.842,234.5 468.5,235C 474.343,236.18 478.343,239.513 480.5,245C 480.095,245.945 479.428,246.612 478.5,247C 474.661,247.459 470.828,247.959 467,248.5C 463.989,246.685 460.823,245.018 457.5,243.5C 451.966,244.584 451.299,246.751 455.5,250C 461.952,250.797 468.285,252.131 474.5,254C 483.207,259.602 484.707,266.769 479,275.5C 476.125,278.463 472.625,280.296 468.5,281C 459.342,282.093 450.342,281.426 441.5,279C 438.206,276.745 435.873,273.745 434.5,270C 434.833,269.5 435.167,269 435.5,268.5C 441.124,266.92 446.791,266.587 452.5,267.5C 455.695,272.674 459.861,273.674 465,270.5C 465.72,268.888 465.554,267.388 464.5,266C 457.907,264.122 451.24,262.455 444.5,261C 436.553,256.541 434.387,250.041 438,241.5C 440.998,238.262 444.498,235.929 448.5,234.5 Z"/></g>
<g><path style="opacity:0.938" fill="#fefffe" d="M 501.5,234.5 C 508.175,234.334 514.842,234.5 521.5,235C 527.343,236.18 531.343,239.513 533.5,245C 533.095,245.945 532.428,246.612 531.5,247C 527.661,247.459 523.828,247.959 520,248.5C 516.989,246.685 513.823,245.018 510.5,243.5C 504.966,244.584 504.299,246.751 508.5,250C 514.952,250.797 521.285,252.131 527.5,254C 536.207,259.602 537.707,266.769 532,275.5C 529.125,278.463 525.625,280.296 521.5,281C 512.342,282.093 503.342,281.426 494.5,279C 491.206,276.745 488.873,273.745 487.5,270C 487.833,269.5 488.167,269 488.5,268.5C 494.124,266.92 499.791,266.587 505.5,267.5C 508.695,272.674 512.861,273.674 518,270.5C 518.72,268.888 518.554,267.388 517.5,266C 510.907,264.122 504.24,262.455 497.5,261C 489.553,256.541 487.387,250.041 491,241.5C 493.998,238.262 497.498,235.929 501.5,234.5 Z"/></g>
<g><path style="opacity:0.938" fill="#fefffe" d="M 582.5,234.5 C 589.175,234.334 595.842,234.5 602.5,235C 608.343,236.18 612.343,239.513 614.5,245C 614.095,245.945 613.428,246.612 612.5,247C 608.661,247.459 604.828,247.959 601,248.5C 597.989,246.685 594.823,245.018 591.5,243.5C 585.966,244.584 585.299,246.751 589.5,250C 595.952,250.797 602.285,252.131 608.5,254C 617.207,259.602 618.707,266.769 613,275.5C 610.125,278.463 606.625,280.296 602.5,281C 593.342,282.093 584.342,281.426 575.5,279C 572.206,276.745 569.873,273.745 568.5,270C 568.833,269.5 569.167,269 569.5,268.5C 575.124,266.92 580.791,266.587 586.5,267.5C 589.695,272.674 593.861,273.674 599,270.5C 599.72,268.888 599.554,267.388 598.5,266C 591.907,264.122 585.24,262.455 578.5,261C 570.553,256.541 568.387,250.041 572,241.5C 574.998,238.262 578.498,235.929 582.5,234.5 Z"/></g>
<g><path style="opacity:0.941" fill="#fefffe" d="M 675.5,234.5 C 682.841,234.334 690.174,234.5 697.5,235C 704.784,236.618 708.951,241.118 710,248.5C 710.333,258.167 710.667,267.833 711,277.5C 711.374,278.416 711.874,279.25 712.5,280C 706.509,280.499 700.509,280.666 694.5,280.5C 694.688,278.897 694.188,277.563 693,276.5C 690.531,278.652 687.698,280.152 684.5,281C 677.916,282.141 671.583,281.474 665.5,279C 660.789,274.86 659.289,269.694 661,263.5C 662.981,260.255 665.814,258.089 669.5,257C 676.564,255.587 683.564,253.921 690.5,252C 692.592,251.047 692.925,249.714 691.5,248C 690.127,247.125 688.627,246.625 687,246.5C 682.807,247.574 678.973,249.241 675.5,251.5C 671.111,251.077 666.778,250.41 662.5,249.5C 662.758,241.226 667.092,236.226 675.5,234.5 Z M 689.5,261.5 C 690.5,261.5 691.5,261.5 692.5,261.5C 692.834,267.837 689.834,271.504 683.5,272.5C 679.448,272.293 677.948,270.293 679,266.5C 682.262,264.145 685.762,262.478 689.5,261.5 Z"/></g>
<g><path style="opacity:0.954" fill="#fefffe" d="M 746.5,234.5 C 754.187,232.996 760.687,234.996 766,240.5C 766.822,242.788 767.489,245.122 768,247.5C 768.5,258.495 768.667,269.495 768.5,280.5C 762.5,280.5 756.5,280.5 750.5,280.5C 750.666,271.161 750.5,261.827 750,252.5C 746.592,245.935 742.925,245.935 739,252.5C 738.5,261.827 738.334,271.161 738.5,280.5C 732.5,280.5 726.5,280.5 720.5,280.5C 720.5,265.5 720.5,250.5 720.5,235.5C 726.167,235.5 731.833,235.5 737.5,235.5C 737.34,237.199 737.506,238.866 738,240.5C 740.322,237.605 743.155,235.605 746.5,234.5 Z"/></g>
<g><path style="opacity:0.952" fill="#fefffe" d="M 543.5,235.5 C 549.5,235.5 555.5,235.5 561.5,235.5C 561.5,250.5 561.5,265.5 561.5,280.5C 555.5,280.5 549.5,280.5 543.5,280.5C 543.5,265.5 543.5,250.5 543.5,235.5 Z"/></g>
<g><path style="opacity:0.956" fill="#fefffe" d="M 338.5,250.5 C 347.167,250.5 355.833,250.5 364.5,250.5C 364.5,255.167 364.5,259.833 364.5,264.5C 355.833,264.5 347.167,264.5 338.5,264.5C 338.5,259.833 338.5,255.167 338.5,250.5 Z"/></g>
<g><path style="opacity:1" fill="#3a2b60" d="M 114.5,251.5 C 117.439,251.918 119.772,253.418 121.5,256C 128.599,258.413 134.766,256.913 140,251.5C 142.59,252.687 143.09,254.52 141.5,257C 132.166,264.488 123,264.322 114,256.5C 113.36,254.735 113.527,253.068 114.5,251.5 Z"/></g>
<g><path style="opacity:0.787" fill="#e9eaea" d="M 21.5,258.5 C 24.006,259.75 26.6726,260.416 29.5,260.5C 29.5,262.833 29.5,265.167 29.5,267.5C 26.1195,265.12 23.4528,262.12 21.5,258.5 Z"/></g>
</svg>
